<svg width="33" height="10" viewBox="0 0 33 10" fill="none" xmlns="http://www.w3.org/2000/svg">
<path d="M1.272 0.0599997L1.452 0.636V9.18H0.264V0.0599997H1.272ZM1.98 2.664C1.98 2.216 1.96 1.884 1.92 1.668C1.88 1.452 1.82 1.312 1.74 1.248C1.668 1.176 1.572 1.14 1.452 1.14H0.912V0.0599997H1.272C1.728 0.0599997 2.096 0.148 2.376 0.324C2.656 0.492 2.86 0.768 2.988 1.152C3.116 1.528 3.18 2.032 3.18 2.664C3.18 3.288 3.116 3.792 2.988 4.176C2.86 4.552 2.656 4.828 2.376 5.004C2.096 5.18 1.728 5.268 1.272 5.268H0.912V4.188H1.452C1.572 4.188 1.668 4.152 1.74 4.08C1.82 4.008 1.88 3.864 1.92 3.648C1.96 3.432 1.98 3.104 1.98 2.664ZM3.56869 0.0599997H4.57669L4.75669 0.636V9.18H3.56869V0.0599997ZM4.85269 4.5H5.88469L6.48469 9.18H5.34469L4.85269 4.5ZM4.57669 5.028H4.21669V4.068H4.75669C4.87669 4.068 4.97269 4.036 5.04469 3.972C5.12469 3.9 5.18469 3.76 5.22469 3.552C5.26469 3.336 5.28469 3.02 5.28469 2.604C5.28469 2.172 5.26469 1.852 5.22469 1.644C5.18469 1.436 5.12469 1.3 5.04469 1.236C4.97269 1.172 4.87669 1.14 4.75669 1.14H4.21669V0.0599997H4.57669C5.03269 0.0599997 5.40069 0.144 5.68069 0.312C5.96069 0.48 6.16469 0.752 6.29269 1.128C6.42069 1.496 6.48469 1.988 6.48469 2.604C6.48469 3.164 6.41669 3.6 6.28069 3.912C6.15269 4.216 5.96069 4.46 5.70469 4.644H5.32069V4.932C5.10469 4.996 4.85669 5.028 4.57669 5.028ZM7.40137 7.584V6.504H9.02138V7.584H7.40137ZM7.31738 0.0599997H9.02138L9.66938 9.18H8.46938L8.24138 2.424L8.10938 0.36H8.20538L8.07338 2.424L7.82138 9.18H6.66938L7.31738 0.0599997ZM11.1546 -2.38419e-07C11.4266 -2.38419e-07 11.6626 0.0639999 11.8626 0.192C12.0626 0.312 12.2186 0.532 12.3306 0.852C12.4506 1.172 12.5106 1.628 12.5106 2.22V3.036H11.4306V2.28C11.4306 1.968 11.4186 1.716 11.3946 1.524C11.3786 1.332 11.3506 1.196 11.3106 1.116C11.2786 1.028 11.2346 0.984 11.1786 0.984C11.1226 0.984 11.0706 1.044 11.0226 1.164C10.9826 1.276 10.9626 1.424 10.9626 1.608C10.9626 2.04 11.0146 2.452 11.1186 2.844C11.2226 3.228 11.3546 3.604 11.5146 3.972C11.6746 4.34 11.8306 4.712 11.9826 5.088C12.1426 5.464 12.2746 5.856 12.3786 6.264C12.4826 6.664 12.5346 7.092 12.5346 7.548C12.5346 7.844 12.4866 8.124 12.3906 8.388C12.2946 8.644 12.1466 8.852 11.9466 9.012C11.7546 9.164 11.5066 9.24 11.2026 9.24C10.9386 9.24 10.7026 9.18 10.4946 9.06C10.2946 8.932 10.1346 8.708 10.0146 8.388C9.90256 8.06 9.84656 7.604 9.84656 7.02V6.324H10.9266V6.96C10.9266 7.272 10.9346 7.524 10.9506 7.716C10.9746 7.9 11.0066 8.036 11.0466 8.124C11.0866 8.212 11.1306 8.256 11.1786 8.256C11.2346 8.256 11.2746 8.224 11.2986 8.16C11.3306 8.096 11.3546 8.016 11.3706 7.92C11.3866 7.816 11.3946 7.712 11.3946 7.608C11.3946 7.216 11.3426 6.84 11.2386 6.48C11.1346 6.112 11.0026 5.748 10.8426 5.388C10.6906 5.028 10.5346 4.656 10.3746 4.272C10.2146 3.888 10.0826 3.484 9.97856 3.06C9.87456 2.628 9.82256 2.164 9.82256 1.668C9.82256 1.196 9.94656 0.8 10.1946 0.48C10.4426 0.16 10.7626 -2.38419e-07 11.1546 -2.38419e-07ZM14.0608 -2.38419e-07C14.3328 -2.38419e-07 14.5688 0.0639999 14.7688 0.192C14.9688 0.312 15.1248 0.532 15.2368 0.852C15.3568 1.172 15.4168 1.628 15.4168 2.22V3.036H14.3368V2.28C14.3368 1.968 14.3248 1.716 14.3008 1.524C14.2848 1.332 14.2568 1.196 14.2168 1.116C14.1848 1.028 14.1408 0.984 14.0848 0.984C14.0288 0.984 13.9768 1.044 13.9288 1.164C13.8888 1.276 13.8688 1.424 13.8688 1.608C13.8688 2.04 13.9208 2.452 14.0248 2.844C14.1288 3.228 14.2608 3.604 14.4208 3.972C14.5808 4.34 14.7368 4.712 14.8888 5.088C15.0488 5.464 15.1808 5.856 15.2848 6.264C15.3888 6.664 15.4408 7.092 15.4408 7.548C15.4408 7.844 15.3928 8.124 15.2968 8.388C15.2008 8.644 15.0528 8.852 14.8528 9.012C14.6608 9.164 14.4128 9.24 14.1088 9.24C13.8448 9.24 13.6088 9.18 13.4008 9.06C13.2008 8.932 13.0408 8.708 12.9208 8.388C12.8088 8.06 12.7528 7.604 12.7528 7.02V6.324H13.8328V6.96C13.8328 7.272 13.8408 7.524 13.8568 7.716C13.8808 7.9 13.9128 8.036 13.9528 8.124C13.9928 8.212 14.0368 8.256 14.0848 8.256C14.1408 8.256 14.1808 8.224 14.2048 8.16C14.2368 8.096 14.2608 8.016 14.2768 7.92C14.2928 7.816 14.3008 7.712 14.3008 7.608C14.3008 7.216 14.2488 6.84 14.1448 6.48C14.0408 6.112 13.9088 5.748 13.7488 5.388C13.5968 5.028 13.4408 4.656 13.2808 4.272C13.1208 3.888 12.9888 3.484 12.8848 3.06C12.7808 2.628 12.7288 2.164 12.7288 1.668C12.7288 1.196 12.8528 0.8 13.1008 0.48C13.3488 0.16 13.6688 -2.38419e-07 14.0608 -2.38419e-07ZM17.5311 9.18V4.98H17.0031V9.18H15.8031V0.0599997H17.0031V3.84H17.5311V0.0599997H18.7311V9.18H17.5311ZM19.7881 7.584V6.504H21.4081V7.584H19.7881ZM19.7041 0.0599997H21.4081L22.0561 9.18H20.8561L20.6281 2.424L20.4961 0.36H20.5921L20.4601 2.424L20.2081 9.18H19.0561L19.7041 0.0599997ZM24.0453 0.0599997L24.5253 6.324L24.6933 8.388V6.324L24.5733 0.0599997H25.6653V9.18H23.9973L23.5173 2.916L23.3493 0.852V2.916L23.4693 9.18H22.3773V0.0599997H24.0453ZM27.8656 0.0599997L28.3456 6.324L28.5136 8.388V6.324L28.3936 0.0599997H29.4856V9.18H27.8176L27.3376 2.916L27.1696 0.852V2.916L27.2896 9.18H26.1976V0.0599997H27.8656ZM30.5459 7.584V6.504H32.1659V7.584H30.5459ZM30.4619 0.0599997H32.1659L32.8139 9.18H31.6139L31.3859 2.424L31.2539 0.36H31.3499L31.2179 2.424L30.9659 9.18H29.8139L30.4619 0.0599997Z" fill="black"/>
</svg>
