<svg width="1441" height="284" viewBox="0 0 1441 284" fill="none" xmlns="http://www.w3.org/2000/svg">
<path d="M12.8504 280.353C9.07087 280.353 7.18111 278.967 7.18111 276.195C7.18111 273.928 8.8189 272.416 12.0945 271.66L20.7874 270.148C26.0788 269.14 29.4803 267.755 30.9921 265.991C32.7559 264.227 33.6378 260.699 33.6378 255.408V33.1717C33.6378 27.8804 32.7559 24.3528 30.9921 22.589C29.4803 20.8253 26.0788 19.4394 20.7874 18.4315L12.0945 16.9197C8.8189 16.1638 7.18111 14.652 7.18111 12.3843C7.18111 9.61264 9.07087 8.22682 12.8504 8.22682H91.8426C106.709 8.22682 119.811 11.5024 131.15 18.0536C142.488 24.3528 151.307 33.1717 157.606 44.5103C163.906 55.8489 167.055 68.9513 167.055 83.8174C167.055 98.1796 163.906 110.904 157.606 121.991C151.307 133.077 142.614 141.77 131.528 148.069C120.441 154.117 107.591 157.14 92.9764 157.14H65.7638C62.2363 157.14 60.4725 158.904 60.4725 162.432V253.896C60.4725 259.188 61.4804 262.841 63.4961 264.857C65.5119 266.621 70.0473 268.132 77.1024 269.392L91.0867 271.66C93.8583 272.164 95.2442 273.55 95.2442 275.818C95.2442 278.841 93.3544 280.353 89.5749 280.353H12.8504ZM60.4725 126.904C60.4725 140.762 68.9134 147.691 85.7953 147.691C102.173 147.691 115.024 141.896 124.347 130.306C133.921 118.715 138.709 102.841 138.709 82.6836C138.709 62.0221 133.921 46.0221 124.347 34.6835C114.772 23.3449 101.165 17.6756 83.5276 17.6756C68.1575 17.6756 60.4725 22.715 60.4725 32.7938V126.904ZM226.704 111.786C237.035 94.1481 249.507 85.3292 264.121 85.3292C272.436 85.3292 278.609 87.8489 282.641 92.8883C286.672 97.6757 288.688 103.093 288.688 109.14C288.688 113.928 287.428 117.833 284.909 120.857C282.641 123.88 278.987 125.392 273.948 125.392C269.916 125.392 266.893 124.51 264.877 122.747C263.113 120.731 261.602 118.463 260.342 115.943C259.334 113.424 258.074 111.282 256.562 109.518C255.05 107.502 252.531 106.495 249.003 106.495C244.468 106.495 240.184 109.266 236.153 114.81C232.121 120.101 228.72 127.282 225.948 136.353C223.428 145.424 222.168 155.754 222.168 167.345V255.03C222.168 260.321 222.924 264.101 224.436 266.369C226.2 268.636 229.727 270.022 235.019 270.526L245.224 271.66C247.995 272.164 249.381 273.55 249.381 275.818C249.381 278.841 247.491 280.353 243.712 280.353H179.838C176.058 280.353 174.168 278.967 174.168 276.195C174.168 273.928 175.806 272.416 179.082 271.66L183.617 270.904C188.909 269.896 192.31 268.384 193.822 266.369C195.586 264.101 196.468 260.321 196.468 255.03V128.038C196.468 123.502 195.712 120.479 194.2 118.967C192.94 117.203 190.546 116.069 187.019 115.565L179.082 114.432C175.806 114.18 174.168 112.794 174.168 110.274C174.168 108.258 176.184 106.873 180.216 106.117C188.027 104.857 193.948 102.841 197.979 100.069C202.263 97.2977 206.672 93.8962 211.208 89.8647C213.476 87.5969 215.365 86.4631 216.877 86.4631C219.145 86.4631 220.279 87.9749 220.279 90.9985V111.408C220.279 113.172 221.035 114.306 222.546 114.81C224.058 115.062 225.444 114.054 226.704 111.786ZM319.976 283.755C309.393 283.755 300.7 280.479 293.897 273.928C287.094 267.125 283.692 258.18 283.692 247.093C283.692 236.258 287.094 226.054 293.897 216.479C300.7 206.652 310.023 197.833 321.865 190.022C333.708 182.211 347.188 175.912 362.306 171.125C365.582 170.117 367.22 167.975 367.22 164.699V130.306C367.22 118.211 365.33 109.644 361.55 104.605C357.771 99.3135 352.606 96.6678 346.054 96.6678C339.755 96.6678 333.96 99.5654 328.668 105.361C323.629 110.904 319.976 120.353 317.708 133.707C316.448 141.77 313.676 147.691 309.393 151.471C305.361 154.999 301.204 156.762 296.92 156.762C289.865 156.762 286.338 153.235 286.338 146.18C286.338 138.873 288.354 131.691 292.385 124.636C296.668 117.329 302.212 110.778 309.015 104.983C315.818 98.9355 323.251 94.1481 331.314 90.6206C339.377 87.093 347.44 85.3292 355.503 85.3292C380.448 85.3292 392.921 99.8174 392.921 128.794V244.447C392.921 255.03 395.566 260.321 400.858 260.321C404.133 260.321 407.157 258.18 409.928 253.896C412.7 249.361 414.086 241.802 414.086 231.219C414.086 227.188 415.724 225.172 418.999 225.172C422.023 225.172 423.535 227.314 423.535 231.597C423.535 249.991 420.259 263.345 413.708 271.66C407.409 279.723 400.228 283.755 392.165 283.755C386.117 283.755 381.33 281.361 377.802 276.573C374.275 271.534 371.881 265.613 370.621 258.81C370.369 256.29 369.235 255.03 367.22 255.03C365.456 254.778 363.692 255.912 361.928 258.432C355.881 266.747 349.708 273.046 343.409 277.329C337.109 281.613 329.298 283.755 319.976 283.755ZM330.18 266.369C336.731 266.369 342.779 264.101 348.322 259.566C353.865 254.778 358.401 248.479 361.928 240.668C365.456 232.857 367.22 224.038 367.22 214.211V186.621C367.22 181.833 364.574 180.447 359.283 182.463C343.913 188.006 331.944 195.691 323.377 205.518C315.062 215.093 310.905 226.684 310.905 240.29C310.905 257.676 317.33 266.369 330.18 266.369ZM467.534 283.755C461.738 283.755 455.565 282.999 449.014 281.487C442.463 280.227 437.171 278.589 433.14 276.573C430.872 275.314 429.738 273.172 429.738 270.148L428.605 227.817C428.605 223.534 430.242 221.392 433.518 221.392C436.29 221.392 438.179 223.408 439.187 227.44C443.471 245.329 448.636 257.55 454.683 264.101C460.983 270.652 468.542 273.928 477.36 273.928C484.668 273.928 490.715 271.156 495.502 265.613C500.29 259.818 502.683 251.881 502.683 241.802C502.683 231.723 499.912 222.778 494.368 214.967C488.825 207.156 479.502 198.589 466.4 189.266C453.297 180.447 443.723 171.628 437.675 162.81C431.628 153.739 428.605 143.912 428.605 133.329C428.605 118.967 433.644 107.376 443.723 98.5576C453.801 89.7387 467.156 85.3292 483.786 85.3292C488.825 85.3292 493.738 85.9591 498.526 87.219C503.313 88.2269 507.597 89.9906 511.376 92.5103C513.644 94.0221 514.778 96.0379 514.778 98.5576L515.534 140.132C515.534 143.912 514.022 145.802 510.998 145.802C509.235 145.802 507.975 145.298 507.219 144.29C506.463 143.03 505.833 141.518 505.329 139.754C500.29 123.376 495.25 112.038 490.211 105.739C485.172 99.1875 478.998 95.9119 471.691 95.9119C465.14 95.9119 459.723 98.1796 455.439 102.715C451.156 107.25 449.014 112.92 449.014 119.723C449.014 128.542 451.66 136.227 456.951 142.778C462.242 149.329 471.817 157.392 485.675 166.967C498.274 176.038 507.723 185.865 514.022 196.447C520.573 206.778 523.849 218.117 523.849 230.463C523.849 246.589 518.683 259.566 508.353 269.392C498.022 278.967 484.416 283.755 467.534 283.755ZM576.24 283.755C570.444 283.755 564.271 282.999 557.72 281.487C551.169 280.227 545.877 278.589 541.846 276.573C539.578 275.314 538.444 273.172 538.444 270.148L537.31 227.817C537.31 223.534 538.948 221.392 542.224 221.392C544.995 221.392 546.885 223.408 547.893 227.44C552.176 245.329 557.342 257.55 563.389 264.101C569.688 270.652 577.247 273.928 586.066 273.928C593.373 273.928 599.421 271.156 604.208 265.613C608.995 259.818 611.389 251.881 611.389 241.802C611.389 231.723 608.617 222.778 603.074 214.967C597.531 207.156 588.208 198.589 575.106 189.266C562.003 180.447 552.428 171.628 546.381 162.81C540.334 153.739 537.31 143.912 537.31 133.329C537.31 118.967 542.35 107.376 552.428 98.5576C562.507 89.7387 575.862 85.3292 592.491 85.3292C597.531 85.3292 602.444 85.9591 607.232 87.219C612.019 88.2269 616.303 89.9906 620.082 92.5103C622.35 94.0221 623.484 96.0379 623.484 98.5576L624.24 140.132C624.24 143.912 622.728 145.802 619.704 145.802C617.94 145.802 616.68 145.298 615.925 144.29C615.169 143.03 614.539 141.518 614.035 139.754C608.995 123.376 603.956 112.038 598.917 105.739C593.877 99.1875 587.704 95.9119 580.397 95.9119C573.846 95.9119 568.428 98.1796 564.145 102.715C559.862 107.25 557.72 112.92 557.72 119.723C557.72 128.542 560.365 136.227 565.657 142.778C570.948 149.329 580.523 157.392 594.381 166.967C606.98 176.038 616.429 185.865 622.728 196.447C629.279 206.778 632.554 218.117 632.554 230.463C632.554 246.589 627.389 259.566 617.058 269.392C606.728 278.967 593.121 283.755 576.24 283.755ZM645.638 280.353C642.615 280.353 641.103 278.967 641.103 276.195C641.103 273.676 642.489 272.164 645.26 271.66L650.552 270.904C655.843 270.148 659.244 268.636 660.756 266.369C662.52 264.101 663.402 260.321 663.402 255.03V38.463C663.402 33.9276 662.646 30.904 661.134 29.3922C659.874 27.6284 657.481 26.4945 653.953 25.9906L646.016 24.8567C643.244 24.3528 641.859 22.841 641.859 20.3213C641.859 17.8016 643.244 16.2898 646.016 15.7859C653.071 14.2741 658.992 12.5103 663.78 10.4945C668.567 8.47877 672.599 6.46303 675.874 4.44729C679.906 1.92761 682.93 0.667763 684.945 0.667763C687.717 0.667763 689.103 2.68351 689.103 6.715V106.873C689.103 109.14 689.859 110.526 691.37 111.03C692.882 111.282 694.772 110.4 697.04 108.384C706.615 99.5655 715.056 93.5182 722.363 90.2426C729.67 86.967 737.355 85.3292 745.418 85.3292C757.26 85.3292 766.583 89.3607 773.386 97.4237C780.189 105.235 783.591 116.825 783.591 132.195V255.03C783.591 260.321 784.347 264.101 785.859 266.369C787.622 268.384 791.15 269.77 796.441 270.526L804.756 271.66C807.528 272.164 808.914 273.676 808.914 276.195C808.914 278.967 807.402 280.353 804.378 280.353H740.882C737.355 280.353 735.591 278.967 735.591 276.195C735.591 273.676 736.977 272.164 739.748 271.66L745.04 270.904C750.331 270.148 753.733 268.636 755.245 266.369C757.008 264.101 757.89 260.321 757.89 255.03V136.353C757.89 124.006 755.622 115.313 751.087 110.274C746.552 105.235 740.126 102.715 731.811 102.715C723.748 102.715 716.441 105.109 709.89 109.896C703.591 114.432 698.552 120.605 694.772 128.416C690.992 135.975 689.103 144.416 689.103 153.739V255.03C689.103 260.321 689.859 264.101 691.37 266.369C693.134 268.636 696.662 270.022 701.953 270.526L712.158 271.66C714.93 272.164 716.315 273.676 716.315 276.195C716.315 278.967 714.804 280.353 711.78 280.353H645.638ZM850.763 283.755C840.181 283.755 831.488 280.479 824.685 273.928C817.881 267.125 814.48 258.18 814.48 247.093C814.48 236.258 817.881 226.054 824.685 216.479C831.488 206.652 840.811 197.833 852.653 190.022C864.496 182.211 877.976 175.912 893.094 171.125C896.37 170.117 898.007 167.975 898.007 164.699V130.306C898.007 118.211 896.118 109.644 892.338 104.605C888.559 99.3135 883.393 96.6678 876.842 96.6678C870.543 96.6678 864.748 99.5654 859.456 105.361C854.417 110.904 850.763 120.353 848.496 133.707C847.236 141.77 844.464 147.691 840.181 151.471C836.149 154.999 831.992 156.762 827.708 156.762C820.653 156.762 817.125 153.235 817.125 146.18C817.125 138.873 819.141 131.691 823.173 124.636C827.456 117.329 833 110.778 839.803 104.983C846.606 98.9355 854.039 94.1481 862.102 90.6206C870.165 87.093 878.228 85.3292 886.291 85.3292C911.236 85.3292 923.708 99.8174 923.708 128.794V244.447C923.708 255.03 926.354 260.321 931.645 260.321C934.921 260.321 937.944 258.18 940.716 253.896C943.488 249.361 944.874 241.802 944.874 231.219C944.874 227.188 946.511 225.172 949.787 225.172C952.811 225.172 954.322 227.314 954.322 231.597C954.322 249.991 951.047 263.345 944.496 271.66C938.196 279.723 931.015 283.755 922.952 283.755C916.905 283.755 912.118 281.361 908.59 276.573C905.063 271.534 902.669 265.613 901.409 258.81C901.157 256.29 900.023 255.03 898.007 255.03C896.244 254.778 894.48 255.912 892.716 258.432C886.669 266.747 880.496 273.046 874.196 277.329C867.897 281.613 860.086 283.755 850.763 283.755ZM860.968 266.369C867.519 266.369 873.566 264.101 879.11 259.566C884.653 254.778 889.189 248.479 892.716 240.668C896.244 232.857 898.007 224.038 898.007 214.211V186.621C898.007 181.833 895.362 180.447 890.07 182.463C874.7 188.006 862.732 195.691 854.165 205.518C845.85 215.093 841.692 226.684 841.692 240.29C841.692 257.676 848.118 266.369 860.968 266.369ZM960.148 280.353C956.369 280.353 954.479 278.967 954.479 276.195C954.479 273.928 956.117 272.416 959.392 271.66L963.928 270.904C969.219 269.896 972.621 268.384 974.132 266.369C975.896 264.101 976.778 260.321 976.778 255.03V128.038C976.778 123.502 976.022 120.479 974.51 118.967C973.251 117.203 970.857 116.069 967.329 115.565L959.392 114.432C956.117 114.18 954.479 112.794 954.479 110.274C954.479 108.258 956.495 106.873 960.526 106.117C968.337 104.857 974.258 102.841 978.29 100.069C982.573 97.2977 986.983 93.8962 991.518 89.8647C993.786 87.5969 995.676 86.4631 997.188 86.4631C999.455 86.4631 1000.59 87.9749 1000.59 90.9985V108.006C1000.59 110.274 1001.35 111.786 1002.86 112.542C1004.62 113.046 1006.51 112.29 1008.53 110.274C1018.6 100.699 1027.42 94.1481 1034.98 90.6206C1042.79 87.093 1050.98 85.3292 1059.55 85.3292C1070.89 85.3292 1079.96 89.3607 1086.76 97.4237C1093.57 105.235 1096.97 116.825 1096.97 132.195V255.03C1096.97 260.321 1097.72 264.101 1099.23 266.369C1101 268.384 1104.53 269.77 1109.82 270.526L1118.13 271.66C1120.9 272.164 1122.29 273.676 1122.29 276.195C1122.29 278.967 1120.78 280.353 1117.75 280.353H1054.26C1050.73 280.353 1048.97 278.967 1048.97 276.195C1048.97 273.676 1050.35 272.164 1053.12 271.66L1058.42 270.904C1063.71 270.148 1067.11 268.636 1068.62 266.369C1070.38 264.101 1071.27 260.321 1071.27 255.03V136.353C1071.27 124.006 1069 115.313 1064.46 110.274C1059.93 105.235 1053.5 102.715 1045.19 102.715C1037.12 102.715 1029.82 105.109 1023.27 109.896C1016.97 114.432 1011.93 120.605 1008.15 128.416C1004.37 135.975 1002.48 144.416 1002.48 153.739V255.03C1002.48 260.321 1003.23 264.101 1004.75 266.369C1006.51 268.636 1010.04 270.022 1015.33 270.526L1025.53 271.66C1028.31 272.164 1029.69 273.55 1029.69 275.818C1029.69 278.841 1027.8 280.353 1024.02 280.353H960.148ZM1130.12 280.353C1126.34 280.353 1124.45 278.967 1124.45 276.195C1124.45 273.928 1126.09 272.416 1129.37 271.66L1133.9 270.904C1139.19 269.896 1142.6 268.384 1144.11 266.369C1145.87 264.101 1146.75 260.321 1146.75 255.03V128.038C1146.75 123.502 1146 120.479 1144.49 118.967C1143.23 117.203 1140.83 116.069 1137.3 115.565L1129.37 114.432C1126.09 114.18 1124.45 112.794 1124.45 110.274C1124.45 108.258 1126.47 106.873 1130.5 106.117C1138.31 104.857 1144.23 102.841 1148.27 100.069C1152.55 97.2977 1156.96 93.8962 1161.49 89.8647C1163.76 87.5969 1165.65 86.4631 1167.16 86.4631C1169.43 86.4631 1170.56 87.9749 1170.56 90.9985V108.006C1170.56 110.274 1171.32 111.786 1172.83 112.542C1174.6 113.046 1176.49 112.29 1178.5 110.274C1188.58 100.699 1197.4 94.1481 1204.96 90.6206C1212.77 87.093 1220.96 85.3292 1229.53 85.3292C1240.86 85.3292 1249.93 89.3607 1256.74 97.4237C1263.54 105.235 1266.94 116.825 1266.94 132.195V255.03C1266.94 260.321 1267.7 264.101 1269.21 266.369C1270.97 268.384 1274.5 269.77 1279.79 270.526L1288.11 271.66C1290.88 272.164 1292.27 273.676 1292.27 276.195C1292.27 278.967 1290.75 280.353 1287.73 280.353H1224.23C1220.71 280.353 1218.94 278.967 1218.94 276.195C1218.94 273.676 1220.33 272.164 1223.1 271.66L1228.39 270.904C1233.68 270.148 1237.08 268.636 1238.6 266.369C1240.36 264.101 1241.24 260.321 1241.24 255.03V136.353C1241.24 124.006 1238.97 115.313 1234.44 110.274C1229.9 105.235 1223.48 102.715 1215.16 102.715C1207.1 102.715 1199.79 105.109 1193.24 109.896C1186.94 114.432 1181.9 120.605 1178.12 128.416C1174.34 135.975 1172.45 144.416 1172.45 153.739V255.03C1172.45 260.321 1173.21 264.101 1174.72 266.369C1176.49 268.636 1180.01 270.022 1185.3 270.526L1195.51 271.66C1198.28 272.164 1199.67 273.55 1199.67 275.818C1199.67 278.841 1197.78 280.353 1194 280.353H1130.12ZM1334.11 283.755C1323.53 283.755 1314.84 280.479 1308.04 273.928C1301.23 267.125 1297.83 258.18 1297.83 247.093C1297.83 236.258 1301.23 226.054 1308.04 216.479C1314.84 206.652 1324.16 197.833 1336 190.022C1347.85 182.211 1361.33 175.912 1376.45 171.125C1379.72 170.117 1381.36 167.975 1381.36 164.699V130.306C1381.36 118.211 1379.47 109.644 1375.69 104.605C1371.91 99.3135 1366.74 96.6678 1360.19 96.6678C1353.89 96.6678 1348.1 99.5654 1342.81 105.361C1337.77 110.904 1334.11 120.353 1331.85 133.707C1330.59 141.77 1327.82 147.691 1323.53 151.471C1319.5 154.999 1315.34 156.762 1311.06 156.762C1304 156.762 1300.48 153.235 1300.48 146.18C1300.48 138.873 1302.49 131.691 1306.52 124.636C1310.81 117.329 1316.35 110.778 1323.15 104.983C1329.96 98.9355 1337.39 94.1481 1345.45 90.6206C1353.52 87.093 1361.58 85.3292 1369.64 85.3292C1394.59 85.3292 1407.06 99.8174 1407.06 128.794V244.447C1407.06 255.03 1409.71 260.321 1415 260.321C1418.27 260.321 1421.3 258.18 1424.07 253.896C1426.84 249.361 1428.23 241.802 1428.23 231.219C1428.23 227.188 1429.86 225.172 1433.14 225.172C1436.16 225.172 1437.67 227.314 1437.67 231.597C1437.67 249.991 1434.4 263.345 1427.85 271.66C1421.55 279.723 1414.37 283.755 1406.3 283.755C1400.26 283.755 1395.47 281.361 1391.94 276.573C1388.41 271.534 1386.02 265.613 1384.76 258.81C1384.51 256.29 1383.37 255.03 1381.36 255.03C1379.6 254.778 1377.83 255.912 1376.07 258.432C1370.02 266.747 1363.85 273.046 1357.55 277.329C1351.25 281.613 1343.44 283.755 1334.11 283.755ZM1344.32 266.369C1350.87 266.369 1356.92 264.101 1362.46 259.566C1368 254.778 1372.54 248.479 1376.07 240.668C1379.6 232.857 1381.36 224.038 1381.36 214.211V186.621C1381.36 181.833 1378.71 180.447 1373.42 182.463C1358.05 188.006 1346.08 195.691 1337.52 205.518C1329.2 215.093 1325.04 226.684 1325.04 240.29C1325.04 257.676 1331.47 266.369 1344.32 266.369Z" fill="black"/>
</svg>
