<svg width="33" height="7" viewBox="0 0 33 7" fill="none" xmlns="http://www.w3.org/2000/svg">
<path d="M0.29443 6.4082C0.207833 6.4082 0.164534 6.37645 0.164534 6.31295C0.164534 6.26099 0.20206 6.22635 0.277111 6.20903L0.476284 6.17439C0.59752 6.1513 0.675457 6.11955 0.710096 6.07913C0.750508 6.03872 0.770714 5.9579 0.770714 5.83666V0.744756C0.770714 0.623521 0.750508 0.542697 0.710096 0.502284C0.675457 0.461873 0.59752 0.430121 0.476284 0.407028L0.277111 0.372389C0.20206 0.35507 0.164534 0.320431 0.164534 0.268472C0.164534 0.204968 0.207833 0.173216 0.29443 0.173216H2.10431C2.44492 0.173216 2.74513 0.248267 3.00492 0.398368C3.26471 0.542697 3.46677 0.744756 3.6111 1.00455C3.75543 1.26434 3.82759 1.56454 3.82759 1.90516C3.82759 2.23423 3.75543 2.52577 3.6111 2.77979C3.46677 3.0338 3.2676 3.23298 3.01358 3.37731C2.75956 3.51586 2.46513 3.58514 2.13029 3.58514H1.50679C1.42596 3.58514 1.38555 3.62555 1.38555 3.70638V5.80202C1.38555 5.92326 1.40865 6.00697 1.45483 6.05316C1.50102 6.09357 1.60493 6.12821 1.76658 6.15707L2.08699 6.20903C2.15049 6.22058 2.18225 6.25233 2.18225 6.30429C2.18225 6.37356 2.13895 6.4082 2.05235 6.4082H0.29443ZM1.38555 2.89236C1.38555 3.20989 1.57895 3.36865 1.96575 3.36865C2.34101 3.36865 2.63544 3.23586 2.84904 2.9703C3.06842 2.70474 3.17811 2.34103 3.17811 1.87918C3.17811 1.40578 3.06842 1.03919 2.84904 0.779395C2.62966 0.519604 2.31791 0.389708 1.91379 0.389708C1.56163 0.389708 1.38555 0.505171 1.38555 0.736097V2.89236ZM5.19427 2.54597C5.43096 2.14186 5.71674 1.9398 6.05158 1.9398C6.24209 1.9398 6.38353 1.99753 6.4759 2.11299C6.56827 2.22268 6.61446 2.3468 6.61446 2.48536C6.61446 2.59505 6.58559 2.68453 6.52786 2.75381C6.4759 2.82309 6.39219 2.85772 6.27673 2.85772C6.18436 2.85772 6.11508 2.83752 6.0689 2.79711C6.02848 2.75092 5.99385 2.69896 5.96498 2.64123C5.94189 2.5835 5.91302 2.53443 5.87838 2.49402C5.84374 2.44783 5.78601 2.42474 5.70519 2.42474C5.60127 2.42474 5.50313 2.48824 5.41076 2.61525C5.31839 2.73649 5.24045 2.90102 5.17695 3.10886C5.11922 3.31669 5.09035 3.55339 5.09035 3.81895V5.828C5.09035 5.94924 5.10767 6.03584 5.14231 6.08779C5.18272 6.13975 5.26354 6.1715 5.38478 6.18305L5.61859 6.20903C5.6821 6.22058 5.71385 6.25233 5.71385 6.30429C5.71385 6.37356 5.67055 6.4082 5.58395 6.4082H4.12046C4.03387 6.4082 3.99057 6.37645 3.99057 6.31295C3.99057 6.26099 4.02809 6.22635 4.10314 6.20903L4.20706 6.19171C4.3283 6.16862 4.40623 6.13398 4.44087 6.08779C4.48128 6.03584 4.50149 5.94924 4.50149 5.828V2.91834C4.50149 2.81443 4.48417 2.74515 4.44953 2.71051C4.42067 2.6701 4.36582 2.64412 4.285 2.63257L4.10314 2.60659C4.02809 2.60082 3.99057 2.56907 3.99057 2.51134C3.99057 2.46515 4.03675 2.4334 4.12912 2.41608C4.30809 2.38721 4.44376 2.34103 4.53613 2.27752C4.63427 2.21402 4.7353 2.13608 4.83922 2.04371C4.89118 1.99175 4.93448 1.96577 4.96911 1.96577C5.02107 1.96577 5.04705 2.00041 5.04705 2.06969V2.53732C5.04705 2.57773 5.06437 2.60371 5.09901 2.61525C5.13365 2.62103 5.1654 2.59793 5.19427 2.54597ZM7.33132 6.48614C7.08885 6.48614 6.88967 6.41109 6.7338 6.26099C6.57792 6.10511 6.49999 5.90017 6.49999 5.64615C6.49999 5.3979 6.57792 5.16409 6.7338 4.94471C6.88967 4.71956 7.10328 4.5175 7.37462 4.33853C7.64595 4.15957 7.95482 4.01524 8.30121 3.90555C8.37626 3.88246 8.41378 3.83338 8.41378 3.75833V2.9703C8.41378 2.69319 8.37048 2.4969 8.28389 2.38144C8.19729 2.2602 8.07894 2.19959 7.92884 2.19959C7.78451 2.19959 7.65173 2.26598 7.53049 2.39876C7.41503 2.52577 7.33132 2.74226 7.27936 3.04824C7.25049 3.23298 7.18699 3.36865 7.08885 3.45524C6.99648 3.53607 6.90122 3.57648 6.80308 3.57648C6.64143 3.57648 6.56061 3.49566 6.56061 3.33401C6.56061 3.16659 6.60679 3.00205 6.69916 2.8404C6.7973 2.67298 6.92431 2.52288 7.08019 2.3901C7.23606 2.25154 7.40637 2.14186 7.59111 2.06103C7.77585 1.98021 7.96059 1.9398 8.14533 1.9398C8.71687 1.9398 9.00264 2.27175 9.00264 2.93566V5.58553C9.00264 5.828 9.06326 5.94924 9.1845 5.94924C9.25955 5.94924 9.32882 5.90017 9.39233 5.80202C9.45583 5.69811 9.48759 5.52491 9.48759 5.28244C9.48759 5.19007 9.52511 5.14389 9.60016 5.14389C9.66944 5.14389 9.70408 5.19296 9.70408 5.2911C9.70408 5.71254 9.62903 6.01852 9.47893 6.20903C9.3346 6.39377 9.17006 6.48614 8.98532 6.48614C8.84677 6.48614 8.73708 6.4313 8.65625 6.32161C8.57543 6.20614 8.52058 6.07047 8.49172 5.9146C8.48595 5.85687 8.45997 5.828 8.41378 5.828C8.37337 5.82223 8.33296 5.84821 8.29255 5.90594C8.15399 6.09645 8.01255 6.24078 7.86822 6.33893C7.72389 6.43707 7.54492 6.48614 7.33132 6.48614ZM7.56513 6.08779C7.71523 6.08779 7.85379 6.03584 7.9808 5.93192C8.10781 5.82223 8.21172 5.6779 8.29255 5.49893C8.37337 5.31997 8.41378 5.11791 8.41378 4.89275V4.2606C8.41378 4.15091 8.35316 4.11915 8.23193 4.16534C7.87977 4.29235 7.60554 4.46843 7.40926 4.69358C7.21874 4.91296 7.12349 5.17853 7.12349 5.49027C7.12349 5.88862 7.2707 6.08779 7.56513 6.08779ZM10.7122 6.48614C10.5794 6.48614 10.438 6.46882 10.2879 6.43418C10.1378 6.40532 10.0165 6.36779 9.92416 6.32161C9.8722 6.29274 9.84622 6.24367 9.84622 6.17439L9.82024 5.2045C9.82024 5.10636 9.85777 5.05729 9.93282 5.05729C9.99632 5.05729 10.0396 5.10347 10.0627 5.19584C10.1609 5.60574 10.2792 5.88573 10.4178 6.03584C10.5621 6.18594 10.7353 6.26099 10.9373 6.26099C11.1048 6.26099 11.2433 6.19748 11.353 6.07047C11.4627 5.93769 11.5175 5.75584 11.5175 5.52491C11.5175 5.29399 11.454 5.08904 11.327 4.91007C11.2 4.73111 10.9864 4.53482 10.6862 4.32121C10.386 4.11915 10.1666 3.91709 10.0281 3.71503C9.88952 3.5072 9.82024 3.28205 9.82024 3.03958C9.82024 2.71051 9.9357 2.44495 10.1666 2.24289C10.3976 2.04083 10.7035 1.9398 11.0846 1.9398C11.2 1.9398 11.3126 1.95423 11.4223 1.98309C11.532 2.00619 11.6301 2.0466 11.7167 2.10433C11.7687 2.13897 11.7947 2.18515 11.7947 2.24289L11.812 3.19545C11.812 3.28205 11.7773 3.32535 11.7081 3.32535C11.6676 3.32535 11.6388 3.3138 11.6215 3.29071C11.6041 3.26184 11.5897 3.22721 11.5782 3.18679C11.4627 2.81154 11.3472 2.55175 11.2318 2.40742C11.1163 2.25732 10.9749 2.18227 10.8074 2.18227C10.6573 2.18227 10.5332 2.23423 10.4351 2.33814C10.3369 2.44206 10.2879 2.57195 10.2879 2.72783C10.2879 2.92989 10.3485 3.10597 10.4697 3.25607C10.591 3.40617 10.8103 3.59091 11.1279 3.81029C11.4165 4.01812 11.633 4.24328 11.7773 4.48575C11.9274 4.72245 12.0025 4.98224 12.0025 5.26512C12.0025 5.6346 11.8841 5.93192 11.6474 6.15707C11.4107 6.37645 11.099 6.48614 10.7122 6.48614ZM13.2029 6.48614C13.0701 6.48614 12.9286 6.46882 12.7785 6.43418C12.6284 6.40532 12.5072 6.36779 12.4148 6.32161C12.3629 6.29274 12.3369 6.24367 12.3369 6.17439L12.3109 5.2045C12.3109 5.10636 12.3484 5.05729 12.4235 5.05729C12.487 5.05729 12.5303 5.10347 12.5534 5.19584C12.6515 5.60574 12.7699 5.88573 12.9084 6.03584C13.0528 6.18594 13.226 6.26099 13.428 6.26099C13.5954 6.26099 13.734 6.19748 13.8437 6.07047C13.9534 5.93769 14.0082 5.75584 14.0082 5.52491C14.0082 5.29399 13.9447 5.08904 13.8177 4.91007C13.6907 4.73111 13.4771 4.53482 13.1769 4.32121C12.8767 4.11915 12.6573 3.91709 12.5188 3.71503C12.3802 3.5072 12.3109 3.28205 12.3109 3.03958C12.3109 2.71051 12.4264 2.44495 12.6573 2.24289C12.8882 2.04083 13.1942 1.9398 13.5752 1.9398C13.6907 1.9398 13.8033 1.95423 13.913 1.98309C14.0227 2.00619 14.1208 2.0466 14.2074 2.10433C14.2594 2.13897 14.2853 2.18515 14.2853 2.24289L14.3027 3.19545C14.3027 3.28205 14.268 3.32535 14.1987 3.32535C14.1583 3.32535 14.1295 3.3138 14.1121 3.29071C14.0948 3.26184 14.0804 3.22721 14.0688 3.18679C13.9534 2.81154 13.8379 2.55175 13.7225 2.40742C13.607 2.25732 13.4655 2.18227 13.2981 2.18227C13.148 2.18227 13.0239 2.23423 12.9258 2.33814C12.8276 2.44206 12.7785 2.57195 12.7785 2.72783C12.7785 2.92989 12.8392 3.10597 12.9604 3.25607C13.0816 3.40617 13.301 3.59091 13.6185 3.81029C13.9072 4.01812 14.1237 4.24328 14.268 4.48575C14.4181 4.72245 14.4932 4.98224 14.4932 5.26512C14.4932 5.6346 14.3748 5.93192 14.1381 6.15707C13.9014 6.37645 13.5897 6.48614 13.2029 6.48614ZM14.7929 6.4082C14.7237 6.4082 14.689 6.37645 14.689 6.31295C14.689 6.25522 14.7208 6.22058 14.7843 6.20903L14.9055 6.19171C15.0268 6.17439 15.1047 6.13975 15.1393 6.08779C15.1797 6.03584 15.1999 5.94924 15.1999 5.828V0.865992C15.1999 0.762076 15.1826 0.692798 15.148 0.658159C15.1191 0.617747 15.0643 0.591768 14.9835 0.580222L14.8016 0.554243C14.7381 0.542696 14.7063 0.508058 14.7063 0.450326C14.7063 0.392595 14.7381 0.357956 14.8016 0.34641C14.9632 0.311771 15.0989 0.271359 15.2086 0.225174C15.3183 0.178989 15.4107 0.132804 15.4857 0.0866189C15.5781 0.0288876 15.6474 2.19282e-05 15.6935 2.19282e-05C15.7571 2.19282e-05 15.7888 0.0462069 15.7888 0.138577V2.4334C15.7888 2.48536 15.8061 2.51711 15.8408 2.52866C15.8754 2.53443 15.9187 2.51422 15.9707 2.46804C16.19 2.26598 16.3834 2.12742 16.5509 2.05237C16.7183 1.97732 16.8944 1.9398 17.0791 1.9398C17.3504 1.9398 17.564 2.03217 17.7199 2.21691C17.8758 2.39587 17.9537 2.66144 17.9537 3.0136V5.828C17.9537 5.94924 17.9711 6.03584 18.0057 6.08779C18.0461 6.13398 18.1269 6.16573 18.2482 6.18305L18.4387 6.20903C18.5022 6.22058 18.5339 6.25522 18.5339 6.31295C18.5339 6.37645 18.4993 6.4082 18.43 6.4082H16.9752C16.8944 6.4082 16.8539 6.37645 16.8539 6.31295C16.8539 6.25522 16.8857 6.22058 16.9492 6.20903L17.0704 6.19171C17.1917 6.17439 17.2696 6.13975 17.3043 6.08779C17.3447 6.03584 17.3649 5.94924 17.3649 5.828V3.10886C17.3649 2.82597 17.3129 2.6268 17.209 2.51134C17.1051 2.39587 16.9579 2.33814 16.7674 2.33814C16.5826 2.33814 16.4152 2.39299 16.2651 2.50268C16.1208 2.60659 16.0053 2.74803 15.9187 2.927C15.8321 3.1002 15.7888 3.2936 15.7888 3.5072V5.828C15.7888 5.94924 15.8061 6.03584 15.8408 6.08779C15.8812 6.13975 15.962 6.1715 16.0832 6.18305L16.317 6.20903C16.3806 6.22058 16.4123 6.25522 16.4123 6.31295C16.4123 6.37645 16.3777 6.4082 16.3084 6.4082H14.7929ZM19.4928 6.48614C19.2503 6.48614 19.0511 6.41109 18.8953 6.26099C18.7394 6.10511 18.6615 5.90017 18.6615 5.64615C18.6615 5.3979 18.7394 5.16409 18.8953 4.94471C19.0511 4.71956 19.2648 4.5175 19.5361 4.33853C19.8074 4.15957 20.1163 4.01524 20.4627 3.90555C20.5377 3.88246 20.5753 3.83338 20.5753 3.75833V2.9703C20.5753 2.69319 20.532 2.4969 20.4454 2.38144C20.3588 2.2602 20.2404 2.19959 20.0903 2.19959C19.946 2.19959 19.8132 2.26598 19.692 2.39876C19.5765 2.52577 19.4928 2.74226 19.4408 3.04824C19.412 3.23298 19.3485 3.36865 19.2503 3.45524C19.1579 3.53607 19.0627 3.57648 18.9645 3.57648C18.8029 3.57648 18.7221 3.49566 18.7221 3.33401C18.7221 3.16659 18.7683 3.00205 18.8606 2.8404C18.9588 2.67298 19.0858 2.52288 19.2417 2.3901C19.3975 2.25154 19.5678 2.14186 19.7526 2.06103C19.9373 1.98021 20.1221 1.9398 20.3068 1.9398C20.8783 1.9398 21.1641 2.27175 21.1641 2.93566V5.58553C21.1641 5.828 21.2247 5.94924 21.346 5.94924C21.421 5.94924 21.4903 5.90017 21.5538 5.80202C21.6173 5.69811 21.6491 5.52491 21.6491 5.28244C21.6491 5.19007 21.6866 5.14389 21.7616 5.14389C21.8309 5.14389 21.8656 5.19296 21.8656 5.2911C21.8656 5.71254 21.7905 6.01852 21.6404 6.20903C21.4961 6.39377 21.3315 6.48614 21.1468 6.48614C21.0082 6.48614 20.8985 6.4313 20.8177 6.32161C20.7369 6.20614 20.6821 6.07047 20.6532 5.9146C20.6474 5.85687 20.6214 5.828 20.5753 5.828C20.5348 5.82223 20.4944 5.84821 20.454 5.90594C20.3155 6.09645 20.174 6.24078 20.0297 6.33893C19.8854 6.43707 19.7064 6.48614 19.4928 6.48614ZM19.7266 6.08779C19.8767 6.08779 20.0153 6.03584 20.1423 5.93192C20.2693 5.82223 20.3732 5.6779 20.454 5.49893C20.5348 5.31997 20.5753 5.11791 20.5753 4.89275V4.2606C20.5753 4.15091 20.5146 4.11915 20.3934 4.16534C20.0412 4.29235 19.767 4.46843 19.5707 4.69358C19.3802 4.91296 19.285 5.17853 19.285 5.49027C19.285 5.88862 19.4322 6.08779 19.7266 6.08779ZM21.999 6.4082C21.9124 6.4082 21.8691 6.37645 21.8691 6.31295C21.8691 6.26099 21.9067 6.22635 21.9817 6.20903L22.0856 6.19171C22.2069 6.16862 22.2848 6.13398 22.3194 6.08779C22.3599 6.03584 22.3801 5.94924 22.3801 5.828V2.91834C22.3801 2.81443 22.3627 2.74515 22.3281 2.71051C22.2992 2.6701 22.2444 2.64412 22.1636 2.63257L21.9817 2.60659C21.9067 2.60082 21.8691 2.56907 21.8691 2.51134C21.8691 2.46515 21.9153 2.4334 22.0077 2.41608C22.1867 2.38721 22.3223 2.34103 22.4147 2.27752C22.5128 2.21402 22.6139 2.13608 22.7178 2.04371C22.7697 1.99175 22.813 1.96577 22.8477 1.96577C22.8996 1.96577 22.9256 2.00041 22.9256 2.06969V2.45938C22.9256 2.51134 22.9429 2.54597 22.9776 2.56329C23.018 2.57484 23.0613 2.55752 23.1075 2.51134C23.3384 2.29196 23.5405 2.14186 23.7137 2.06103C23.8926 1.98021 24.0802 1.9398 24.2765 1.9398C24.5363 1.9398 24.7442 2.03217 24.9 2.21691C25.0559 2.39587 25.1338 2.66144 25.1338 3.0136V5.828C25.1338 5.94924 25.1512 6.03584 25.1858 6.08779C25.2262 6.13398 25.307 6.16573 25.4283 6.18305L25.6188 6.20903C25.6823 6.22058 25.714 6.25522 25.714 6.31295C25.714 6.37645 25.6794 6.4082 25.6101 6.4082H24.1553C24.0745 6.4082 24.0341 6.37645 24.0341 6.31295C24.0341 6.25522 24.0658 6.22058 24.1293 6.20903L24.2506 6.19171C24.3718 6.17439 24.4497 6.13975 24.4844 6.08779C24.5248 6.03584 24.545 5.94924 24.545 5.828V3.10886C24.545 2.82597 24.493 2.6268 24.3891 2.51134C24.2852 2.39587 24.138 2.33814 23.9475 2.33814C23.7627 2.33814 23.5953 2.39299 23.4452 2.50268C23.3009 2.60659 23.1854 2.74803 23.0988 2.927C23.0122 3.1002 22.9689 3.2936 22.9689 3.5072V5.828C22.9689 5.94924 22.9862 6.03584 23.0209 6.08779C23.0613 6.13975 23.1421 6.1715 23.2633 6.18305L23.4972 6.20903C23.5607 6.22058 23.5924 6.25233 23.5924 6.30429C23.5924 6.37356 23.5491 6.4082 23.4625 6.4082H21.999ZM25.8935 6.4082C25.8069 6.4082 25.7636 6.37645 25.7636 6.31295C25.7636 6.26099 25.8012 6.22635 25.8762 6.20903L25.9801 6.19171C26.1014 6.16862 26.1793 6.13398 26.2139 6.08779C26.2544 6.03584 26.2746 5.94924 26.2746 5.828V2.91834C26.2746 2.81443 26.2572 2.74515 26.2226 2.71051C26.1937 2.6701 26.1389 2.64412 26.0581 2.63257L25.8762 2.60659C25.8012 2.60082 25.7636 2.56907 25.7636 2.51134C25.7636 2.46515 25.8098 2.4334 25.9022 2.41608C26.0812 2.38721 26.2168 2.34103 26.3092 2.27752C26.4073 2.21402 26.5084 2.13608 26.6123 2.04371C26.6642 1.99175 26.7075 1.96577 26.7422 1.96577C26.7941 1.96577 26.8201 2.00041 26.8201 2.06969V2.45938C26.8201 2.51134 26.8374 2.54597 26.8721 2.56329C26.9125 2.57484 26.9558 2.55752 27.002 2.51134C27.2329 2.29196 27.435 2.14186 27.6082 2.06103C27.7871 1.98021 27.9747 1.9398 28.171 1.9398C28.4308 1.9398 28.6387 2.03217 28.7945 2.21691C28.9504 2.39587 29.0283 2.66144 29.0283 3.0136V5.828C29.0283 5.94924 29.0457 6.03584 29.0803 6.08779C29.1207 6.13398 29.2015 6.16573 29.3228 6.18305L29.5133 6.20903C29.5768 6.22058 29.6085 6.25522 29.6085 6.31295C29.6085 6.37645 29.5739 6.4082 29.5046 6.4082H28.0498C27.969 6.4082 27.9286 6.37645 27.9286 6.31295C27.9286 6.25522 27.9603 6.22058 28.0238 6.20903L28.1451 6.19171C28.2663 6.17439 28.3442 6.13975 28.3789 6.08779C28.4193 6.03584 28.4395 5.94924 28.4395 5.828V3.10886C28.4395 2.82597 28.3875 2.6268 28.2836 2.51134C28.1797 2.39587 28.0325 2.33814 27.842 2.33814C27.6572 2.33814 27.4898 2.39299 27.3397 2.50268C27.1954 2.60659 27.0799 2.74803 26.9933 2.927C26.9067 3.1002 26.8634 3.2936 26.8634 3.5072V5.828C26.8634 5.94924 26.8807 6.03584 26.9154 6.08779C26.9558 6.13975 27.0366 6.1715 27.1578 6.18305L27.3917 6.20903C27.4552 6.22058 27.4869 6.25233 27.4869 6.30429C27.4869 6.37356 27.4436 6.4082 27.357 6.4082H25.8935ZM30.5674 6.48614C30.3249 6.48614 30.1258 6.41109 29.9699 6.26099C29.814 6.10511 29.7361 5.90017 29.7361 5.64615C29.7361 5.3979 29.814 5.16409 29.9699 4.94471C30.1258 4.71956 30.3394 4.5175 30.6107 4.33853C30.882 4.15957 31.1909 4.01524 31.5373 3.90555C31.6123 3.88246 31.6499 3.83338 31.6499 3.75833V2.9703C31.6499 2.69319 31.6066 2.4969 31.52 2.38144C31.4334 2.2602 31.315 2.19959 31.1649 2.19959C31.0206 2.19959 30.8878 2.26598 30.7666 2.39876C30.6511 2.52577 30.5674 2.74226 30.5154 3.04824C30.4866 3.23298 30.4231 3.36865 30.3249 3.45524C30.2326 3.53607 30.1373 3.57648 30.0392 3.57648C29.8775 3.57648 29.7967 3.49566 29.7967 3.33401C29.7967 3.16659 29.8429 3.00205 29.9352 2.8404C30.0334 2.67298 30.1604 2.52288 30.3163 2.3901C30.4721 2.25154 30.6425 2.14186 30.8272 2.06103C31.0119 1.98021 31.1967 1.9398 31.3814 1.9398C31.953 1.9398 32.2387 2.27175 32.2387 2.93566V5.58553C32.2387 5.828 32.2993 5.94924 32.4206 5.94924C32.4956 5.94924 32.5649 5.90017 32.6284 5.80202C32.6919 5.69811 32.7237 5.52491 32.7237 5.28244C32.7237 5.19007 32.7612 5.14389 32.8362 5.14389C32.9055 5.14389 32.9402 5.19296 32.9402 5.2911C32.9402 5.71254 32.8651 6.01852 32.715 6.20903C32.5707 6.39377 32.4061 6.48614 32.2214 6.48614C32.0829 6.48614 31.9732 6.4313 31.8923 6.32161C31.8115 6.20614 31.7567 6.07047 31.7278 5.9146C31.722 5.85687 31.6961 5.828 31.6499 5.828C31.6095 5.82223 31.569 5.84821 31.5286 5.90594C31.3901 6.09645 31.2486 6.24078 31.1043 6.33893C30.96 6.43707 30.781 6.48614 30.5674 6.48614ZM30.8012 6.08779C30.9513 6.08779 31.0899 6.03584 31.2169 5.93192C31.3439 5.82223 31.4478 5.6779 31.5286 5.49893C31.6095 5.31997 31.6499 5.11791 31.6499 4.89275V4.2606C31.6499 4.15091 31.5892 4.11915 31.468 4.16534C31.1159 4.29235 30.8416 4.46843 30.6453 4.69358C30.4548 4.91296 30.3596 5.17853 30.3596 5.49027C30.3596 5.88862 30.5068 6.08779 30.8012 6.08779Z" fill="white"/>
</svg>
